<svg width="14" height="13" viewBox="0 0 14 13" fill="none" xmlns="http://www.w3.org/2000/svg">
<path d="M13.4789 3.92177L13.4805 3.93872L13.4831 3.95552C13.4898 3.99719 13.5558 4.45299 13.371 5.23413L13.371 5.23428C13.1052 6.3591 12.4905 7.38782 11.5851 8.20786L6.96096 12.3278L2.41646 8.20906L2.41617 8.2088C1.51009 7.38888 0.894841 6.35944 0.628968 5.23426L0.628947 5.23417C0.444068 4.45241 0.510282 3.99697 0.516863 3.95655L0.519708 3.93907L0.52131 3.92144C0.706782 1.87997 2.12805 0.5 3.81195 0.5C4.92979 0.5 5.93625 1.09522 6.52979 2.10955L6.95662 2.83897L7.39044 2.11369C7.98748 1.11552 9.04307 0.500269 10.188 0.500269C11.8721 0.500269 13.2932 1.88022 13.4789 3.92177Z" stroke="black"/>
</svg>
